<mxfile host="Electron" modified="2024-03-20T09:28:30.531Z" agent="Mozilla/5.0 (X11; Linux x86_64) AppleWebKit/537.36 (KHTML, like Gecko) draw.io/23.1.5 Chrome/120.0.6099.109 Electron/28.1.0 Safari/537.36" etag="-9mGJEoES327Sjf3wUPs" version="23.1.5" type="device">
  <diagram name="Sivu-1" id="ZckY97LEdZQlzI0Jqdyb">
    <mxGraphModel dx="2206" dy="1469" grid="1" gridSize="10" guides="1" tooltips="1" connect="1" arrows="1" fold="1" page="1" pageScale="1" pageWidth="827" pageHeight="1169" math="0" shadow="0">
      <root>
        <mxCell id="0" />
        <mxCell id="1" parent="0" />
        <mxCell id="fYmFHo5dRPwSCD5GysoN-1" value="" style="rounded=0;whiteSpace=wrap;html=1;" vertex="1" parent="1">
          <mxGeometry x="50" y="240" width="1920" height="1020" as="geometry" />
        </mxCell>
        <mxCell id="fYmFHo5dRPwSCD5GysoN-9" value="" style="strokeWidth=1;shadow=0;dashed=0;align=center;html=1;shape=mxgraph.mockup.forms.rrect;rSize=0;strokeColor=#999999;" vertex="1" parent="1">
          <mxGeometry x="50" y="240" width="1920" height="30" as="geometry" />
        </mxCell>
        <mxCell id="fYmFHo5dRPwSCD5GysoN-10" value="File" style="strokeColor=inherit;fillColor=inherit;gradientColor=inherit;strokeWidth=1;shadow=0;dashed=0;align=center;html=1;shape=mxgraph.mockup.forms.rrect;rSize=0;fontSize=17;fontColor=#666666;whiteSpace=wrap;" vertex="1" parent="fYmFHo5dRPwSCD5GysoN-9">
          <mxGeometry width="320" height="30" as="geometry" />
        </mxCell>
        <mxCell id="fYmFHo5dRPwSCD5GysoN-11" value="Edit" style="strokeColor=inherit;fillColor=inherit;gradientColor=inherit;strokeWidth=1;shadow=0;dashed=0;align=center;html=1;shape=mxgraph.mockup.forms.rrect;rSize=0;fontSize=17;fontColor=#666666;whiteSpace=wrap;" vertex="1" parent="fYmFHo5dRPwSCD5GysoN-9">
          <mxGeometry x="320" width="320" height="30" as="geometry" />
        </mxCell>
        <mxCell id="fYmFHo5dRPwSCD5GysoN-12" value="Options" style="strokeColor=inherit;fillColor=inherit;gradientColor=inherit;strokeWidth=1;shadow=0;dashed=0;align=center;html=1;shape=mxgraph.mockup.forms.rrect;rSize=0;fontSize=17;fontColor=#666666;whiteSpace=wrap;" vertex="1" parent="fYmFHo5dRPwSCD5GysoN-9">
          <mxGeometry x="640" width="320" height="30" as="geometry" />
        </mxCell>
        <mxCell id="fYmFHo5dRPwSCD5GysoN-13" value="Tools" style="strokeColor=inherit;fillColor=inherit;gradientColor=inherit;strokeWidth=1;shadow=0;dashed=0;align=center;html=1;shape=mxgraph.mockup.forms.rrect;rSize=0;fontSize=17;fontColor=#666666;whiteSpace=wrap;" vertex="1" parent="fYmFHo5dRPwSCD5GysoN-9">
          <mxGeometry x="960" width="320" height="30" as="geometry" />
        </mxCell>
        <mxCell id="fYmFHo5dRPwSCD5GysoN-14" value="Window" style="strokeColor=inherit;fillColor=inherit;gradientColor=inherit;strokeWidth=1;shadow=0;dashed=0;align=center;html=1;shape=mxgraph.mockup.forms.rrect;rSize=0;fontSize=17;fontColor=#666666;whiteSpace=wrap;" vertex="1" parent="fYmFHo5dRPwSCD5GysoN-9">
          <mxGeometry x="1280" width="320" height="30" as="geometry" />
        </mxCell>
        <mxCell id="fYmFHo5dRPwSCD5GysoN-15" value="Help" style="strokeColor=inherit;fillColor=inherit;gradientColor=inherit;strokeWidth=1;shadow=0;dashed=0;align=center;html=1;shape=mxgraph.mockup.forms.rrect;rSize=0;fontSize=17;fontColor=#666666;whiteSpace=wrap;" vertex="1" parent="fYmFHo5dRPwSCD5GysoN-9">
          <mxGeometry x="1600" width="320" height="30" as="geometry" />
        </mxCell>
        <mxCell id="fYmFHo5dRPwSCD5GysoN-46" value="" style="html=1;shadow=0;dashed=0;shape=mxgraph.bootstrap.rrect;rSize=5;fillColor=#ffffff;strokeColor=#999999;" vertex="1" parent="1">
          <mxGeometry x="50" y="270" width="200" height="330" as="geometry" />
        </mxCell>
        <mxCell id="fYmFHo5dRPwSCD5GysoN-47" value="mikko.mallikas@gmail.com" style="fillColor=none;strokeColor=none;align=left;spacing=20;fontSize=14;" vertex="1" parent="fYmFHo5dRPwSCD5GysoN-46">
          <mxGeometry width="170" height="30" relative="1" as="geometry">
            <mxPoint y="10" as="offset" />
          </mxGeometry>
        </mxCell>
        <mxCell id="fYmFHo5dRPwSCD5GysoN-48" value="Inbox" style="fillColor=none;strokeColor=none;align=left;spacing=20;fontSize=14;" vertex="1" parent="fYmFHo5dRPwSCD5GysoN-46">
          <mxGeometry width="170" height="30" relative="1" as="geometry">
            <mxPoint x="30" y="40" as="offset" />
          </mxGeometry>
        </mxCell>
        <mxCell id="fYmFHo5dRPwSCD5GysoN-49" value="Sent" style="fillColor=none;strokeColor=none;align=left;spacing=20;fontSize=14;" vertex="1" parent="fYmFHo5dRPwSCD5GysoN-46">
          <mxGeometry width="170" height="30" relative="1" as="geometry">
            <mxPoint x="30" y="70" as="offset" />
          </mxGeometry>
        </mxCell>
        <mxCell id="fYmFHo5dRPwSCD5GysoN-61" value="Spam" style="fillColor=none;strokeColor=none;align=left;spacing=20;fontSize=14;" vertex="1" parent="fYmFHo5dRPwSCD5GysoN-46">
          <mxGeometry x="30" y="100" width="170" height="30" as="geometry" />
        </mxCell>
        <mxCell id="fYmFHo5dRPwSCD5GysoN-62" value="Drafts" style="fillColor=none;strokeColor=none;align=left;spacing=20;fontSize=14;" vertex="1" parent="fYmFHo5dRPwSCD5GysoN-46">
          <mxGeometry x="30" y="130" width="170" height="30" as="geometry" />
        </mxCell>
        <mxCell id="fYmFHo5dRPwSCD5GysoN-63" value="Important" style="fillColor=none;strokeColor=none;align=left;spacing=20;fontSize=14;" vertex="1" parent="fYmFHo5dRPwSCD5GysoN-46">
          <mxGeometry x="30" y="160" width="170" height="30" as="geometry" />
        </mxCell>
        <mxCell id="fYmFHo5dRPwSCD5GysoN-71" value="Flagged" style="fillColor=none;strokeColor=none;align=left;spacing=20;fontSize=14;" vertex="1" parent="fYmFHo5dRPwSCD5GysoN-46">
          <mxGeometry x="30" y="190" width="170" height="30" as="geometry" />
        </mxCell>
        <mxCell id="fYmFHo5dRPwSCD5GysoN-80" value="Trash" style="fillColor=none;strokeColor=none;align=left;spacing=20;fontSize=14;" vertex="1" parent="fYmFHo5dRPwSCD5GysoN-46">
          <mxGeometry x="30" y="220" width="170" height="30" as="geometry" />
        </mxCell>
        <mxCell id="fYmFHo5dRPwSCD5GysoN-81" value="Archive" style="fillColor=none;strokeColor=none;align=left;spacing=20;fontSize=14;" vertex="1" parent="fYmFHo5dRPwSCD5GysoN-46">
          <mxGeometry x="30" y="250" width="170" height="30" as="geometry" />
        </mxCell>
        <mxCell id="fYmFHo5dRPwSCD5GysoN-82" value="Work" style="fillColor=none;strokeColor=none;align=left;spacing=20;fontSize=14;" vertex="1" parent="fYmFHo5dRPwSCD5GysoN-46">
          <mxGeometry x="30" y="280" width="170" height="30" as="geometry" />
        </mxCell>
        <mxCell id="fYmFHo5dRPwSCD5GysoN-83" value="" style="html=1;shadow=0;dashed=0;shape=mxgraph.bootstrap.rrect;rSize=5;fillColor=#ffffff;strokeColor=#999999;" vertex="1" parent="1">
          <mxGeometry x="50" y="600" width="200" height="330" as="geometry" />
        </mxCell>
        <mxCell id="fYmFHo5dRPwSCD5GysoN-84" value="maija.merinen@tuni.fi" style="fillColor=none;strokeColor=none;align=left;spacing=20;fontSize=14;" vertex="1" parent="fYmFHo5dRPwSCD5GysoN-83">
          <mxGeometry width="170" height="30" relative="1" as="geometry">
            <mxPoint y="10" as="offset" />
          </mxGeometry>
        </mxCell>
        <mxCell id="fYmFHo5dRPwSCD5GysoN-85" value="Inbox" style="fillColor=none;strokeColor=none;align=left;spacing=20;fontSize=14;" vertex="1" parent="fYmFHo5dRPwSCD5GysoN-83">
          <mxGeometry width="170" height="30" relative="1" as="geometry">
            <mxPoint x="30" y="40" as="offset" />
          </mxGeometry>
        </mxCell>
        <mxCell id="fYmFHo5dRPwSCD5GysoN-86" value="Sent" style="fillColor=none;strokeColor=none;align=left;spacing=20;fontSize=14;" vertex="1" parent="fYmFHo5dRPwSCD5GysoN-83">
          <mxGeometry width="170" height="30" relative="1" as="geometry">
            <mxPoint x="30" y="70" as="offset" />
          </mxGeometry>
        </mxCell>
        <mxCell id="fYmFHo5dRPwSCD5GysoN-87" value="Spam" style="fillColor=none;strokeColor=none;align=left;spacing=20;fontSize=14;" vertex="1" parent="fYmFHo5dRPwSCD5GysoN-83">
          <mxGeometry x="30" y="100" width="170" height="30" as="geometry" />
        </mxCell>
        <mxCell id="fYmFHo5dRPwSCD5GysoN-88" value="Drafts" style="fillColor=none;strokeColor=none;align=left;spacing=20;fontSize=14;" vertex="1" parent="fYmFHo5dRPwSCD5GysoN-83">
          <mxGeometry x="30" y="130" width="170" height="30" as="geometry" />
        </mxCell>
        <mxCell id="fYmFHo5dRPwSCD5GysoN-89" value="Important" style="fillColor=none;strokeColor=none;align=left;spacing=20;fontSize=14;" vertex="1" parent="fYmFHo5dRPwSCD5GysoN-83">
          <mxGeometry x="30" y="160" width="170" height="30" as="geometry" />
        </mxCell>
        <mxCell id="fYmFHo5dRPwSCD5GysoN-90" value="Flagged" style="fillColor=none;strokeColor=none;align=left;spacing=20;fontSize=14;" vertex="1" parent="fYmFHo5dRPwSCD5GysoN-83">
          <mxGeometry x="30" y="190" width="170" height="30" as="geometry" />
        </mxCell>
        <mxCell id="fYmFHo5dRPwSCD5GysoN-91" value="Trash" style="fillColor=none;strokeColor=none;align=left;spacing=20;fontSize=14;" vertex="1" parent="fYmFHo5dRPwSCD5GysoN-83">
          <mxGeometry x="30" y="220" width="170" height="30" as="geometry" />
        </mxCell>
        <mxCell id="fYmFHo5dRPwSCD5GysoN-92" value="Archive" style="fillColor=none;strokeColor=none;align=left;spacing=20;fontSize=14;" vertex="1" parent="fYmFHo5dRPwSCD5GysoN-83">
          <mxGeometry x="30" y="250" width="170" height="30" as="geometry" />
        </mxCell>
        <mxCell id="fYmFHo5dRPwSCD5GysoN-93" value="Work" style="fillColor=none;strokeColor=none;align=left;spacing=20;fontSize=14;" vertex="1" parent="fYmFHo5dRPwSCD5GysoN-83">
          <mxGeometry x="30" y="280" width="170" height="30" as="geometry" />
        </mxCell>
        <mxCell id="fYmFHo5dRPwSCD5GysoN-94" value="" style="html=1;shadow=0;dashed=0;shape=mxgraph.bootstrap.rrect;rSize=5;fillColor=#ffffff;strokeColor=#999999;" vertex="1" parent="1">
          <mxGeometry x="50" y="930" width="200" height="330" as="geometry" />
        </mxCell>
        <mxCell id="fYmFHo5dRPwSCD5GysoN-95" value="jouni23@hotmail.com" style="fillColor=none;strokeColor=none;align=left;spacing=20;fontSize=14;" vertex="1" parent="fYmFHo5dRPwSCD5GysoN-94">
          <mxGeometry width="170" height="30" relative="1" as="geometry">
            <mxPoint y="10" as="offset" />
          </mxGeometry>
        </mxCell>
        <mxCell id="fYmFHo5dRPwSCD5GysoN-96" value="Inbox" style="fillColor=none;strokeColor=none;align=left;spacing=20;fontSize=14;" vertex="1" parent="fYmFHo5dRPwSCD5GysoN-94">
          <mxGeometry width="170" height="30" relative="1" as="geometry">
            <mxPoint x="30" y="40" as="offset" />
          </mxGeometry>
        </mxCell>
        <mxCell id="fYmFHo5dRPwSCD5GysoN-97" value="Sent" style="fillColor=none;strokeColor=none;align=left;spacing=20;fontSize=14;" vertex="1" parent="fYmFHo5dRPwSCD5GysoN-94">
          <mxGeometry width="170" height="30" relative="1" as="geometry">
            <mxPoint x="30" y="70" as="offset" />
          </mxGeometry>
        </mxCell>
        <mxCell id="fYmFHo5dRPwSCD5GysoN-98" value="Spam" style="fillColor=none;strokeColor=none;align=left;spacing=20;fontSize=14;" vertex="1" parent="fYmFHo5dRPwSCD5GysoN-94">
          <mxGeometry x="30" y="100" width="170" height="30" as="geometry" />
        </mxCell>
        <mxCell id="fYmFHo5dRPwSCD5GysoN-99" value="Drafts" style="fillColor=none;strokeColor=none;align=left;spacing=20;fontSize=14;" vertex="1" parent="fYmFHo5dRPwSCD5GysoN-94">
          <mxGeometry x="30" y="130" width="170" height="30" as="geometry" />
        </mxCell>
        <mxCell id="fYmFHo5dRPwSCD5GysoN-100" value="Important" style="fillColor=none;strokeColor=none;align=left;spacing=20;fontSize=14;" vertex="1" parent="fYmFHo5dRPwSCD5GysoN-94">
          <mxGeometry x="30" y="160" width="170" height="30" as="geometry" />
        </mxCell>
        <mxCell id="fYmFHo5dRPwSCD5GysoN-101" value="Flagged" style="fillColor=none;strokeColor=none;align=left;spacing=20;fontSize=14;" vertex="1" parent="fYmFHo5dRPwSCD5GysoN-94">
          <mxGeometry x="30" y="190" width="170" height="30" as="geometry" />
        </mxCell>
        <mxCell id="fYmFHo5dRPwSCD5GysoN-102" value="Trash" style="fillColor=none;strokeColor=none;align=left;spacing=20;fontSize=14;" vertex="1" parent="fYmFHo5dRPwSCD5GysoN-94">
          <mxGeometry x="30" y="220" width="170" height="30" as="geometry" />
        </mxCell>
        <mxCell id="fYmFHo5dRPwSCD5GysoN-103" value="Archive" style="fillColor=none;strokeColor=none;align=left;spacing=20;fontSize=14;" vertex="1" parent="fYmFHo5dRPwSCD5GysoN-94">
          <mxGeometry x="30" y="250" width="170" height="30" as="geometry" />
        </mxCell>
        <mxCell id="fYmFHo5dRPwSCD5GysoN-104" value="Work" style="fillColor=none;strokeColor=none;align=left;spacing=20;fontSize=14;" vertex="1" parent="fYmFHo5dRPwSCD5GysoN-94">
          <mxGeometry x="30" y="280" width="170" height="30" as="geometry" />
        </mxCell>
        <mxCell id="fYmFHo5dRPwSCD5GysoN-130" value="" style="html=1;shadow=0;dashed=0;shape=mxgraph.bootstrap.rrect;rSize=5;strokeColor=#DFDFDF;html=1;whiteSpace=wrap;fillColor=#FFFFFF;fontColor=#000000;" vertex="1" parent="1">
          <mxGeometry x="250" y="270" width="1720" height="150" as="geometry" />
        </mxCell>
        <mxCell id="fYmFHo5dRPwSCD5GysoN-131" value="Cras justo odio" style="html=1;shadow=0;dashed=0;shape=mxgraph.bootstrap.topButton;rSize=5;strokeColor=inherit;fillColor=#ffffff;fontColor=#6C767D;perimeter=none;whiteSpace=wrap;resizeWidth=1;align=left;spacing=10;" vertex="1" parent="fYmFHo5dRPwSCD5GysoN-130">
          <mxGeometry width="1719.9999999999995" height="30" relative="1" as="geometry" />
        </mxCell>
        <mxCell id="fYmFHo5dRPwSCD5GysoN-132" value="Dapibus ac facilisis in" style="strokeColor=inherit;fillColor=inherit;gradientColor=inherit;fontColor=inherit;html=1;shadow=0;dashed=0;perimeter=none;whiteSpace=wrap;resizeWidth=1;align=left;spacing=10;" vertex="1" parent="fYmFHo5dRPwSCD5GysoN-130">
          <mxGeometry width="1719.9999999999995" height="30" relative="1" as="geometry">
            <mxPoint y="30" as="offset" />
          </mxGeometry>
        </mxCell>
        <mxCell id="fYmFHo5dRPwSCD5GysoN-133" value="Morbi leo risus" style="strokeColor=inherit;fillColor=inherit;gradientColor=inherit;fontColor=inherit;html=1;shadow=0;dashed=0;perimeter=none;whiteSpace=wrap;resizeWidth=1;align=left;spacing=10;" vertex="1" parent="fYmFHo5dRPwSCD5GysoN-130">
          <mxGeometry width="1719.9999999999995" height="30" relative="1" as="geometry">
            <mxPoint y="60" as="offset" />
          </mxGeometry>
        </mxCell>
        <mxCell id="fYmFHo5dRPwSCD5GysoN-134" value="Porta ac consectetur ac" style="strokeColor=inherit;fillColor=inherit;gradientColor=inherit;fontColor=inherit;html=1;shadow=0;dashed=0;perimeter=none;whiteSpace=wrap;resizeWidth=1;align=left;spacing=10;" vertex="1" parent="fYmFHo5dRPwSCD5GysoN-130">
          <mxGeometry width="1719.9999999999995" height="30" relative="1" as="geometry">
            <mxPoint y="90" as="offset" />
          </mxGeometry>
        </mxCell>
        <mxCell id="fYmFHo5dRPwSCD5GysoN-135" value="Vestibulum at eros" style="strokeColor=inherit;fillColor=inherit;gradientColor=inherit;fontColor=inherit;html=1;shadow=0;dashed=0;shape=mxgraph.bootstrap.bottomButton;rSize=5;perimeter=none;whiteSpace=wrap;resizeWidth=1;resizeHeight=0;align=left;spacing=10;" vertex="1" parent="fYmFHo5dRPwSCD5GysoN-130">
          <mxGeometry y="1" width="1719.9999999999995" height="30" relative="1" as="geometry">
            <mxPoint y="-30" as="offset" />
          </mxGeometry>
        </mxCell>
        <mxCell id="fYmFHo5dRPwSCD5GysoN-136" value="" style="html=1;shadow=0;dashed=0;shape=mxgraph.bootstrap.rrect;rSize=5;strokeColor=#DFDFDF;html=1;whiteSpace=wrap;fillColor=#FFFFFF;fontColor=#000000;" vertex="1" parent="1">
          <mxGeometry x="250" y="420" width="1720" height="150" as="geometry" />
        </mxCell>
        <mxCell id="fYmFHo5dRPwSCD5GysoN-137" value="Cras justo odio" style="html=1;shadow=0;dashed=0;shape=mxgraph.bootstrap.topButton;rSize=5;strokeColor=inherit;fillColor=#ffffff;fontColor=#6C767D;perimeter=none;whiteSpace=wrap;resizeWidth=1;align=left;spacing=10;" vertex="1" parent="fYmFHo5dRPwSCD5GysoN-136">
          <mxGeometry width="1719.9999999999995" height="30" relative="1" as="geometry" />
        </mxCell>
        <mxCell id="fYmFHo5dRPwSCD5GysoN-138" value="Dapibus ac facilisis in" style="strokeColor=inherit;fillColor=inherit;gradientColor=inherit;fontColor=inherit;html=1;shadow=0;dashed=0;perimeter=none;whiteSpace=wrap;resizeWidth=1;align=left;spacing=10;" vertex="1" parent="fYmFHo5dRPwSCD5GysoN-136">
          <mxGeometry width="1719.9999999999995" height="30" relative="1" as="geometry">
            <mxPoint y="30" as="offset" />
          </mxGeometry>
        </mxCell>
        <mxCell id="fYmFHo5dRPwSCD5GysoN-139" value="Morbi leo risus" style="strokeColor=inherit;fillColor=inherit;gradientColor=inherit;fontColor=inherit;html=1;shadow=0;dashed=0;perimeter=none;whiteSpace=wrap;resizeWidth=1;align=left;spacing=10;" vertex="1" parent="fYmFHo5dRPwSCD5GysoN-136">
          <mxGeometry width="1719.9999999999995" height="30" relative="1" as="geometry">
            <mxPoint y="60" as="offset" />
          </mxGeometry>
        </mxCell>
        <mxCell id="fYmFHo5dRPwSCD5GysoN-140" value="Porta ac consectetur ac" style="strokeColor=inherit;fillColor=inherit;gradientColor=inherit;fontColor=inherit;html=1;shadow=0;dashed=0;perimeter=none;whiteSpace=wrap;resizeWidth=1;align=left;spacing=10;" vertex="1" parent="fYmFHo5dRPwSCD5GysoN-136">
          <mxGeometry width="1719.9999999999995" height="30" relative="1" as="geometry">
            <mxPoint y="90" as="offset" />
          </mxGeometry>
        </mxCell>
        <mxCell id="fYmFHo5dRPwSCD5GysoN-141" value="Vestibulum at eros" style="strokeColor=inherit;fillColor=inherit;gradientColor=inherit;fontColor=inherit;html=1;shadow=0;dashed=0;shape=mxgraph.bootstrap.bottomButton;rSize=5;perimeter=none;whiteSpace=wrap;resizeWidth=1;resizeHeight=0;align=left;spacing=10;" vertex="1" parent="fYmFHo5dRPwSCD5GysoN-136">
          <mxGeometry y="1" width="1719.9999999999995" height="30" relative="1" as="geometry">
            <mxPoint y="-30" as="offset" />
          </mxGeometry>
        </mxCell>
        <mxCell id="fYmFHo5dRPwSCD5GysoN-142" value="" style="html=1;shadow=0;dashed=0;shape=mxgraph.bootstrap.rrect;rSize=5;strokeColor=#DFDFDF;html=1;whiteSpace=wrap;fillColor=#FFFFFF;fontColor=#000000;" vertex="1" parent="1">
          <mxGeometry x="250" y="570" width="1720" height="150" as="geometry" />
        </mxCell>
        <mxCell id="fYmFHo5dRPwSCD5GysoN-143" value="Cras justo odio" style="html=1;shadow=0;dashed=0;shape=mxgraph.bootstrap.topButton;rSize=5;strokeColor=inherit;fillColor=#ffffff;fontColor=#6C767D;perimeter=none;whiteSpace=wrap;resizeWidth=1;align=left;spacing=10;" vertex="1" parent="fYmFHo5dRPwSCD5GysoN-142">
          <mxGeometry width="1719.9999999999995" height="30" relative="1" as="geometry" />
        </mxCell>
        <mxCell id="fYmFHo5dRPwSCD5GysoN-144" value="Dapibus ac facilisis in" style="strokeColor=inherit;fillColor=inherit;gradientColor=inherit;fontColor=inherit;html=1;shadow=0;dashed=0;perimeter=none;whiteSpace=wrap;resizeWidth=1;align=left;spacing=10;" vertex="1" parent="fYmFHo5dRPwSCD5GysoN-142">
          <mxGeometry width="1719.9999999999995" height="30" relative="1" as="geometry">
            <mxPoint y="30" as="offset" />
          </mxGeometry>
        </mxCell>
        <mxCell id="fYmFHo5dRPwSCD5GysoN-145" value="Morbi leo risus" style="strokeColor=inherit;fillColor=inherit;gradientColor=inherit;fontColor=inherit;html=1;shadow=0;dashed=0;perimeter=none;whiteSpace=wrap;resizeWidth=1;align=left;spacing=10;" vertex="1" parent="fYmFHo5dRPwSCD5GysoN-142">
          <mxGeometry width="1719.9999999999995" height="30" relative="1" as="geometry">
            <mxPoint y="60" as="offset" />
          </mxGeometry>
        </mxCell>
        <mxCell id="fYmFHo5dRPwSCD5GysoN-146" value="Porta ac consectetur ac" style="strokeColor=inherit;fillColor=inherit;gradientColor=inherit;fontColor=inherit;html=1;shadow=0;dashed=0;perimeter=none;whiteSpace=wrap;resizeWidth=1;align=left;spacing=10;" vertex="1" parent="fYmFHo5dRPwSCD5GysoN-142">
          <mxGeometry width="1719.9999999999995" height="30" relative="1" as="geometry">
            <mxPoint y="90" as="offset" />
          </mxGeometry>
        </mxCell>
        <mxCell id="fYmFHo5dRPwSCD5GysoN-147" value="Vestibulum at eros" style="strokeColor=inherit;fillColor=inherit;gradientColor=inherit;fontColor=inherit;html=1;shadow=0;dashed=0;shape=mxgraph.bootstrap.bottomButton;rSize=5;perimeter=none;whiteSpace=wrap;resizeWidth=1;resizeHeight=0;align=left;spacing=10;" vertex="1" parent="fYmFHo5dRPwSCD5GysoN-142">
          <mxGeometry y="1" width="1719.9999999999995" height="30" relative="1" as="geometry">
            <mxPoint y="-30" as="offset" />
          </mxGeometry>
        </mxCell>
        <mxCell id="fYmFHo5dRPwSCD5GysoN-148" value="" style="html=1;shadow=0;dashed=0;shape=mxgraph.bootstrap.rrect;rSize=5;strokeColor=#DFDFDF;html=1;whiteSpace=wrap;fillColor=#FFFFFF;fontColor=#000000;" vertex="1" parent="1">
          <mxGeometry x="250" y="720" width="1720" height="150" as="geometry" />
        </mxCell>
        <mxCell id="fYmFHo5dRPwSCD5GysoN-149" value="Cras justo odio" style="html=1;shadow=0;dashed=0;shape=mxgraph.bootstrap.topButton;rSize=5;strokeColor=inherit;fillColor=#ffffff;fontColor=#6C767D;perimeter=none;whiteSpace=wrap;resizeWidth=1;align=left;spacing=10;" vertex="1" parent="fYmFHo5dRPwSCD5GysoN-148">
          <mxGeometry width="1719.9999999999995" height="30" relative="1" as="geometry" />
        </mxCell>
        <mxCell id="fYmFHo5dRPwSCD5GysoN-150" value="Dapibus ac facilisis in" style="strokeColor=inherit;fillColor=inherit;gradientColor=inherit;fontColor=inherit;html=1;shadow=0;dashed=0;perimeter=none;whiteSpace=wrap;resizeWidth=1;align=left;spacing=10;" vertex="1" parent="fYmFHo5dRPwSCD5GysoN-148">
          <mxGeometry width="1719.9999999999995" height="30" relative="1" as="geometry">
            <mxPoint y="30" as="offset" />
          </mxGeometry>
        </mxCell>
        <mxCell id="fYmFHo5dRPwSCD5GysoN-151" value="Morbi leo risus" style="strokeColor=inherit;fillColor=inherit;gradientColor=inherit;fontColor=inherit;html=1;shadow=0;dashed=0;perimeter=none;whiteSpace=wrap;resizeWidth=1;align=left;spacing=10;" vertex="1" parent="fYmFHo5dRPwSCD5GysoN-148">
          <mxGeometry width="1719.9999999999995" height="30" relative="1" as="geometry">
            <mxPoint y="60" as="offset" />
          </mxGeometry>
        </mxCell>
        <mxCell id="fYmFHo5dRPwSCD5GysoN-152" value="Porta ac consectetur ac" style="strokeColor=inherit;fillColor=inherit;gradientColor=inherit;fontColor=inherit;html=1;shadow=0;dashed=0;perimeter=none;whiteSpace=wrap;resizeWidth=1;align=left;spacing=10;" vertex="1" parent="fYmFHo5dRPwSCD5GysoN-148">
          <mxGeometry width="1719.9999999999995" height="30" relative="1" as="geometry">
            <mxPoint y="90" as="offset" />
          </mxGeometry>
        </mxCell>
        <mxCell id="fYmFHo5dRPwSCD5GysoN-153" value="Vestibulum at eros" style="strokeColor=inherit;fillColor=inherit;gradientColor=inherit;fontColor=inherit;html=1;shadow=0;dashed=0;shape=mxgraph.bootstrap.bottomButton;rSize=5;perimeter=none;whiteSpace=wrap;resizeWidth=1;resizeHeight=0;align=left;spacing=10;" vertex="1" parent="fYmFHo5dRPwSCD5GysoN-148">
          <mxGeometry y="1" width="1719.9999999999995" height="30" relative="1" as="geometry">
            <mxPoint y="-30" as="offset" />
          </mxGeometry>
        </mxCell>
        <mxCell id="fYmFHo5dRPwSCD5GysoN-154" value="" style="html=1;shadow=0;dashed=0;shape=mxgraph.bootstrap.rrect;rSize=5;strokeColor=#DFDFDF;html=1;whiteSpace=wrap;fillColor=#FFFFFF;fontColor=#000000;" vertex="1" parent="1">
          <mxGeometry x="250" y="870" width="1720" height="150" as="geometry" />
        </mxCell>
        <mxCell id="fYmFHo5dRPwSCD5GysoN-155" value="Cras justo odio" style="html=1;shadow=0;dashed=0;shape=mxgraph.bootstrap.topButton;rSize=5;strokeColor=inherit;fillColor=#ffffff;fontColor=#6C767D;perimeter=none;whiteSpace=wrap;resizeWidth=1;align=left;spacing=10;" vertex="1" parent="fYmFHo5dRPwSCD5GysoN-154">
          <mxGeometry width="1719.9999999999995" height="30" relative="1" as="geometry" />
        </mxCell>
        <mxCell id="fYmFHo5dRPwSCD5GysoN-156" value="Dapibus ac facilisis in" style="strokeColor=inherit;fillColor=inherit;gradientColor=inherit;fontColor=inherit;html=1;shadow=0;dashed=0;perimeter=none;whiteSpace=wrap;resizeWidth=1;align=left;spacing=10;" vertex="1" parent="fYmFHo5dRPwSCD5GysoN-154">
          <mxGeometry width="1719.9999999999995" height="30" relative="1" as="geometry">
            <mxPoint y="30" as="offset" />
          </mxGeometry>
        </mxCell>
        <mxCell id="fYmFHo5dRPwSCD5GysoN-157" value="Morbi leo risus" style="strokeColor=inherit;fillColor=inherit;gradientColor=inherit;fontColor=inherit;html=1;shadow=0;dashed=0;perimeter=none;whiteSpace=wrap;resizeWidth=1;align=left;spacing=10;" vertex="1" parent="fYmFHo5dRPwSCD5GysoN-154">
          <mxGeometry width="1719.9999999999995" height="30" relative="1" as="geometry">
            <mxPoint y="60" as="offset" />
          </mxGeometry>
        </mxCell>
        <mxCell id="fYmFHo5dRPwSCD5GysoN-158" value="Porta ac consectetur ac" style="strokeColor=inherit;fillColor=inherit;gradientColor=inherit;fontColor=inherit;html=1;shadow=0;dashed=0;perimeter=none;whiteSpace=wrap;resizeWidth=1;align=left;spacing=10;" vertex="1" parent="fYmFHo5dRPwSCD5GysoN-154">
          <mxGeometry width="1719.9999999999995" height="30" relative="1" as="geometry">
            <mxPoint y="90" as="offset" />
          </mxGeometry>
        </mxCell>
        <mxCell id="fYmFHo5dRPwSCD5GysoN-159" value="Vestibulum at eros" style="strokeColor=inherit;fillColor=inherit;gradientColor=inherit;fontColor=inherit;html=1;shadow=0;dashed=0;shape=mxgraph.bootstrap.bottomButton;rSize=5;perimeter=none;whiteSpace=wrap;resizeWidth=1;resizeHeight=0;align=left;spacing=10;" vertex="1" parent="fYmFHo5dRPwSCD5GysoN-154">
          <mxGeometry y="1" width="1719.9999999999995" height="30" relative="1" as="geometry">
            <mxPoint y="-30" as="offset" />
          </mxGeometry>
        </mxCell>
        <mxCell id="fYmFHo5dRPwSCD5GysoN-160" value="" style="html=1;shadow=0;dashed=0;shape=mxgraph.bootstrap.rrect;rSize=5;strokeColor=#DFDFDF;html=1;whiteSpace=wrap;fillColor=#FFFFFF;fontColor=#000000;" vertex="1" parent="1">
          <mxGeometry x="250" y="1019" width="1720" height="150" as="geometry" />
        </mxCell>
        <mxCell id="fYmFHo5dRPwSCD5GysoN-161" value="Cras justo odio" style="html=1;shadow=0;dashed=0;shape=mxgraph.bootstrap.topButton;rSize=5;strokeColor=inherit;fillColor=#ffffff;fontColor=#6C767D;perimeter=none;whiteSpace=wrap;resizeWidth=1;align=left;spacing=10;" vertex="1" parent="fYmFHo5dRPwSCD5GysoN-160">
          <mxGeometry width="1719.9999999999995" height="30" relative="1" as="geometry" />
        </mxCell>
        <mxCell id="fYmFHo5dRPwSCD5GysoN-162" value="Dapibus ac facilisis in" style="strokeColor=inherit;fillColor=inherit;gradientColor=inherit;fontColor=inherit;html=1;shadow=0;dashed=0;perimeter=none;whiteSpace=wrap;resizeWidth=1;align=left;spacing=10;" vertex="1" parent="fYmFHo5dRPwSCD5GysoN-160">
          <mxGeometry width="1719.9999999999995" height="30" relative="1" as="geometry">
            <mxPoint y="30" as="offset" />
          </mxGeometry>
        </mxCell>
        <mxCell id="fYmFHo5dRPwSCD5GysoN-163" value="Morbi leo risus" style="strokeColor=inherit;fillColor=inherit;gradientColor=inherit;fontColor=inherit;html=1;shadow=0;dashed=0;perimeter=none;whiteSpace=wrap;resizeWidth=1;align=left;spacing=10;" vertex="1" parent="fYmFHo5dRPwSCD5GysoN-160">
          <mxGeometry width="1719.9999999999995" height="30" relative="1" as="geometry">
            <mxPoint y="60" as="offset" />
          </mxGeometry>
        </mxCell>
        <mxCell id="fYmFHo5dRPwSCD5GysoN-164" value="Porta ac consectetur ac" style="strokeColor=inherit;fillColor=inherit;gradientColor=inherit;fontColor=inherit;html=1;shadow=0;dashed=0;perimeter=none;whiteSpace=wrap;resizeWidth=1;align=left;spacing=10;" vertex="1" parent="fYmFHo5dRPwSCD5GysoN-160">
          <mxGeometry width="1719.9999999999995" height="30" relative="1" as="geometry">
            <mxPoint y="90" as="offset" />
          </mxGeometry>
        </mxCell>
        <mxCell id="fYmFHo5dRPwSCD5GysoN-165" value="Vestibulum at eros" style="strokeColor=inherit;fillColor=inherit;gradientColor=inherit;fontColor=inherit;html=1;shadow=0;dashed=0;shape=mxgraph.bootstrap.bottomButton;rSize=5;perimeter=none;whiteSpace=wrap;resizeWidth=1;resizeHeight=0;align=left;spacing=10;" vertex="1" parent="fYmFHo5dRPwSCD5GysoN-160">
          <mxGeometry y="1" width="1719.9999999999995" height="30" relative="1" as="geometry">
            <mxPoint y="-30" as="offset" />
          </mxGeometry>
        </mxCell>
        <mxCell id="fYmFHo5dRPwSCD5GysoN-166" value="Vestibulum at eros" style="strokeColor=inherit;fillColor=inherit;gradientColor=inherit;fontColor=inherit;html=1;shadow=0;dashed=0;shape=mxgraph.bootstrap.bottomButton;rSize=5;perimeter=none;whiteSpace=wrap;resizeWidth=1;resizeHeight=0;align=left;spacing=10;" vertex="1" parent="1">
          <mxGeometry x="250" y="1169" width="1719.9999999999995" height="30" as="geometry" />
        </mxCell>
        <mxCell id="fYmFHo5dRPwSCD5GysoN-167" value="Lorem ipsum" style="strokeColor=inherit;fillColor=inherit;gradientColor=inherit;fontColor=inherit;html=1;shadow=0;dashed=0;shape=mxgraph.bootstrap.bottomButton;rSize=5;perimeter=none;whiteSpace=wrap;resizeWidth=1;resizeHeight=0;align=left;spacing=10;" vertex="1" parent="1">
          <mxGeometry x="250" y="1199" width="1719.9999999999995" height="30" as="geometry" />
        </mxCell>
        <mxCell id="fYmFHo5dRPwSCD5GysoN-168" value="Sit dolor" style="strokeColor=inherit;fillColor=inherit;gradientColor=inherit;fontColor=inherit;html=1;shadow=0;dashed=0;shape=mxgraph.bootstrap.bottomButton;rSize=5;perimeter=none;whiteSpace=wrap;resizeWidth=1;resizeHeight=0;align=left;spacing=10;" vertex="1" parent="1">
          <mxGeometry x="250" y="1229" width="1719.9999999999995" height="30" as="geometry" />
        </mxCell>
      </root>
    </mxGraphModel>
  </diagram>
</mxfile>
